<svg viewBox="292.222 182.296 21 21" width="21" height="21" xmlns="http://www.w3.org/2000/svg">
    <defs>
        <radialGradient id="paint0_radial_734_4589" cx="0" cy="0" r="1" gradientUnits="userSpaceOnUse"
            gradientTransform="translate(0.582922 0.917034) rotate(55.378) scale(29.7535 118.891)">
            <stop offset="0.0515" stop-color="#C549FF"></stop>
            <stop offset="0.8156" stop-color="#704BFF"></stop>
        </radialGradient>
    </defs>
    <path fill-rule="evenodd" clip-rule="evenodd"
        d="M0 5.54104C0 3.30909 1.80927 1.5 4.04104 1.5H21V4.60068C21 6.20484 19.6997 7.50516 18.0955 7.50516H10.1221C7.89016 7.50516 6.08108 9.31443 6.08108 11.5464V12.5746C6.08108 14.8066 7.89016 16.6156 10.1221 16.6156H18.0955C19.6997 16.6156 21 17.9161 21 19.5203V22.5002H4.04104C1.80927 22.5002 0 20.6907 0 18.4589V5.54104ZM10.2966 9.19514H18.4743C19.8693 9.19514 21 10.326 21 11.7208V12.4001C21 13.795 19.8693 14.9259 18.4743 14.9259H10.2966C8.90161 14.9259 7.77076 13.795 7.77076 12.4001V11.7208C7.77076 10.326 8.90161 9.19514 10.2966 9.19514Z"
        fill="url(#paint0_radial_734_4589)" transform="matrix(1, 0, 0, 1, 292.222137, 180.795822)"></path>
</svg>