<?xml version="1.0" encoding="UTF-8"?>
<svg id="Layer_2" data-name="Layer 2" xmlns="http://www.w3.org/2000/svg" xmlns:xlink="http://www.w3.org/1999/xlink" viewBox="0 0 38 38.01">
  <defs>
    <style>
      .cls-1 {
        fill: url(#linear-gradient);
      }
    </style>
    <linearGradient id="linear-gradient" x1=".37" y1="-2.67" x2="40.08" y2="-15.06" gradientTransform="translate(0 10.52) scale(1 -1)" gradientUnits="userSpaceOnUse">
      <stop offset="0" stop-color="#71aaef"/>
      <stop offset=".34" stop-color="#3f79cf"/>
      <stop offset=".71" stop-color="#2e74b5"/>
      <stop offset="1" stop-color="#2160a2"/>
    </linearGradient>
  </defs>
  <g id="Layer_1-2" data-name="Layer 1">
    <path class="cls-1" d="m36.52,11.63C32.45,1.96,21.31-2.58,11.63,1.49,1.96,5.56-2.58,16.7,1.49,26.38c4.07,9.67,15.21,14.21,24.88,10.14,7.05-2.97,11.63-9.87,11.63-17.51,0-2.53-.5-5.04-1.49-7.37Zm-1.61,15.1l-.84-2.22,2.07-1.11c-.3,1.15-.71,2.26-1.23,3.33h0s0,0,0,0ZM2.01,23.44l2.05,1.1-.83,2.19c-.51-1.05-.92-2.15-1.22-3.29h0Zm-.56-4.43c0-.58.03-1.14.08-1.7l1.57,1.74-1.56,1.74c-.06-.59-.09-1.18-.09-1.77h0Zm1.77-7.69l.85,2.24-2.08,1.11c.3-1.16.71-2.28,1.23-3.35Zm32.94,3.34l-2.09-1.12.85-2.25c.53,1.08.94,2.21,1.24,3.37Zm-10.25,16.26l-1.65-1.12c.52-.25,1.02-.54,1.5-.87l.15,1.98Zm-4.45,1.57l-1.11-1.57c.56-.06,1.11-.15,1.65-.29l-.54,1.86Zm-4.75.06l-.56-1.92c.58.14,1.17.24,1.76.3l-1.21,1.62Zm-1.07,1.01l-2.48,1.52-.86-2.65,2.52-1.7.82,2.83h0Zm-3.4-2.67l.14-1.95c.47.32.97.6,1.48.85l-1.62,1.1h0Zm0-23.74l1.59,1.08c-.5.25-.98.53-1.44.84,0,0-.14-1.92-.14-1.92Zm4.47-1.66l1.19,1.6c-.58.06-1.16.15-1.73.3l.54-1.89Zm4.74.06l.53,1.84c-.53-.13-1.07-.23-1.62-.28l1.09-1.55h0Zm1.05-1.11l2.47-1.53.87,2.68-2.52,1.72s-.82-2.86-.82-2.87Zm3.4,2.69l-.14,1.94c-.47-.32-.96-.6-1.46-.85,0,0,1.61-1.1,1.61-1.1Zm-6.83,22.55c-5.88,0-10.67-4.79-10.67-10.67,0-3.11,1.36-6.06,3.72-8.09.08-.04.16-.1.21-.18.89-.73,1.9-1.31,2.98-1.72.08-.01.15-.04.21-.08,3.53-1.25,7.46-.54,10.34,1.85.02.02.05.04.08.06,2.41,2.02,3.8,5.01,3.8,8.15,0,5.88-4.79,10.67-10.67,10.67Zm-11.94-9.71l-1.91-.92,1.9-.91c-.04.61-.04,1.22,0,1.83h0Zm23.89-1.85l1.9.91-1.91.92c.02-.31.04-.62.04-.94,0-.3-.02-.6-.04-.89,0,0,0,0,0,0Zm-.99-3.96l1.89.17-1.33,1.37c-.15-.53-.34-1.04-.56-1.54Zm-2.36-3.49l1.92-.48-.79,1.83c-.34-.48-.72-.93-1.13-1.35,0,0,0,0,0,0Zm-8.53-4.1l-1.82-2.44,1.69-2.25,1.83,2.26s-1.71,2.44-1.71,2.44Zm-4.32.77l-2.52-1.72.86-2.68,2.48,1.53s-.82,2.87-.82,2.87Zm-5.48,4.69l-.78-1.82,1.91.48c-.41.42-.78.86-1.12,1.34h0Zm-1.79,3.69l-1.32-1.38,1.88-.17c-.22.5-.41,1.01-.55,1.54h0s0,0,0,0Zm-2.8-1.02l2.07,2.15-2.75,1.31-1.88-2.09s2.57-1.37,2.56-1.37Zm-.68,5.25l2.74,1.32-2.06,2.15-2.57-1.37s1.89-2.09,1.89-2.09Zm3.51,2.42c.16.53.35,1.06.58,1.57l-1.92-.17s1.35-1.4,1.34-1.4Zm2.95,5.04l-1.97.49.81-1.87c.35.49.74.95,1.17,1.38Zm8.62,4.09l1.71,2.41-1.83,2.24-1.69-2.23,1.82-2.42h0Zm4.18-.73l2.52,1.7-.86,2.65-2.48-1.52.82-2.84Zm5.47-4.74l.8,1.86-1.96-.49c.42-.43.81-.89,1.16-1.37Zm1.79-3.67l1.34,1.39-1.91.17c.23-.51.42-1.03.57-1.56,0,0,0,0,0,0Zm2.82,1.04l-2.06-2.15,2.75-1.32,1.88,2.09s-2.57,1.38-2.57,1.38Zm.68-5.26l-2.75-1.32,2.06-2.14,2.57,1.37-1.88,2.09Zm-1.24-5.05l-2.97-.26,1.2-2.8,2.8.34s-1.03,2.72-1.03,2.72Zm-2.9-4.34l-2.89.72.22-3.04,2.75-.59-.08,2.91h0Zm-8.08-5.45l-1.51-1.86c1.19.09,2.37.29,3.52.62l-2.01,1.24h0Zm-5.58.03l-2.04-1.26c1.13-.32,2.29-.53,3.46-.62l-1.42,1.88h0Zm-5.19,6.17l-2.89-.72-.09-2.91,2.75.6.22,3.04Zm-4.03.56l1.21,2.8-2.97.26-1.04-2.72s2.8-.34,2.8-.34Zm-1.77,14.95l2.96.26-1.2,2.8-2.79-.34,1.03-2.72h0Zm2.91,4.34l2.89-.72-.22,3.04-2.75.59s.09-2.91.09-2.91Zm8.08,5.38l1.42,1.87c-1.17-.09-2.32-.3-3.45-.62l2.03-1.25h0Zm5.58.03l2,1.23c-1.15.32-2.33.53-3.52.62l1.51-1.85Zm5.19-6.15l2.89.73.09,2.91-2.75-.6-.22-3.04h0Zm4.03-.56l-1.2-2.8,2.97-.26,1.03,2.72-2.79.34h0Zm3.95-9.01l1.58-1.75c.11,1.17.11,2.34,0,3.51,0,0-1.58-1.75-1.58-1.75Zm-1.45-10.01l-2.34-.28.07-2.39c.84.81,1.6,1.71,2.27,2.67h0Zm-4.29-4.36l-2.22.48-.7-2.17c1.03.47,2,1.03,2.92,1.69Zm-17.52-1.68l-.7,2.18-2.23-.48c.92-.66,1.91-1.23,2.94-1.7Zm-4.95,3.39l.07,2.39-2.33.28c.66-.96,1.42-1.86,2.26-2.67Zm-2.2,22.72l2.27.28-.07,2.31c-.81-.79-1.55-1.65-2.2-2.58,0,0,0,0,0,0Zm4.3,4.34l2.16-.47.68,2.11c-1-.46-1.95-1.01-2.85-1.64Zm17.45,1.64l.69-2.13,2.18.47c-.9.64-1.86,1.19-2.87,1.65h0s0,0,0,0Zm4.95-3.38l-.07-2.34,2.3-.28c-.66.94-1.4,1.82-2.23,2.62h0Z"/>
  </g>
</svg>