<svg version="1.2" xmlns="http://www.w3.org/2000/svg" viewBox="0 0 373 373" width="373" height="373"><style>.a{fill:#f0d2bc;stroke:#f0d2bc;stroke-width:0}.b{fill:#e2761b;stroke:#e2761b;stroke-linecap:round;stroke-linejoin:round}.c{fill:#e4761b;stroke:#e4761b;stroke-linecap:round;stroke-linejoin:round}.d{fill:#d7c1b3;stroke:#d7c1b3;stroke-linecap:round;stroke-linejoin:round}.e{fill:#233447;stroke:#233447;stroke-linecap:round;stroke-linejoin:round}.f{fill:#cd6116;stroke:#cd6116;stroke-linecap:round;stroke-linejoin:round}.g{fill:#e4751f;stroke:#e4751f;stroke-linecap:round;stroke-linejoin:round}.h{fill:#e4761b;stroke:#f6851b;stroke-linecap:round;stroke-linejoin:undefined}.i{fill:#c0ad9e;stroke:#c0ad9e;stroke-linecap:round;stroke-linejoin:round}.j{fill:#161616;stroke:#161616;stroke-linecap:round;stroke-linejoin:round}.k{fill:#763d16;stroke:#763d16;stroke-linecap:round;stroke-linejoin:round}</style><path class="a" d="m186 361c-96.8 0-175-78.2-175-175 0-96.8 78.2-175 175-175 96.8 0 175 78.2 175 175 0 96.8-78.2 175-175 175z"/><path class="b" d="m300.1 68.5l-99.5 73.9 18.4-43.6z"/><path fill-rule="evenodd" class="c" d="m151.6 98.8l17.5 44.3-98.7-74.6zm159.2 141.9l-16.3 55.3-56.7-15.6 26.5-40.6zm-204.5-0.9l26.5 40.6-56.7 15.6-16.2-55.3z"/><path fill-rule="evenodd" class="c" d="m168.1 137.1l2 60.5-56.3-2.5 15.8-23.9zm88.7 58l-56.2 2.5 1.3-61.2 39 34.8zm-119.4 46l29.2 22.8-33.8 16.5zm95.7 0l4.7 39.3-33.9-16.5z"/><path class="d" d="m206.3 295.3l0.3-9.3-2.7-22.1 33.9 16.5zm-39.7-31.4l-2.5 22.1 0.2 9.3-31.5-14.9z"/><path fill-rule="evenodd" class="e" d="m164.8 226.5l-28.2-8.3 19.9-9.1zm69.2-8.3l-20-9.1-8.3 17.4z"/><path fill-rule="evenodd" class="f" d="m106.3 240.7l31.3-0.9-4.8 40.6zm126.7-0.9l4.8 40.6 26.5-39.7zm23.8-44.7l-56.2 2.5 5.2 28.9 8.3-17.4 20 9.1zm-120.2 23.1l20-9.1 8.2 17.4 5.3-28.9-56.3-2.5z"/><path fill-rule="evenodd" class="g" d="m136.6 218.2l0.8 22.9-23.6-46zm120.2-23.1l-23.7 46 1-22.9zm-83.9 20.6l-1.5 44.9-6.6-34.1 5.3-28.9zm32.9 10.8l-6.7 34.1-1.2-45 2.7-18z"/><path class="h" d="m234.1 218.2l-1 22.9-29.2 22.8-4.8-3.3 6.7-34.1zm-69.3 8.3l6.6 34.1-4.8 3.3-29.2-22.8-0.8-22.9z"/><path class="i" d="m237.8 280.4l-11 9-22.4 15.5h-38.3l-22.3-15.5-11-9 31.5 14.9-0.2-9.3 2.3-2.2h37.7l2.5 2.2-0.3 9.3z"/><path class="j" d="m206.6 286l-2.5-2.2h-37.7l-2.3 2.2 2.5-22.1 4.8-3.3h27.7l4.8 3.3z"/><path class="k" d="m309.6 151.2l-8 6.1 6.2 4.8-8 7.3 5 3.6-11.6 13.5-52.3-15.3-37-31.3 96.2-71.4 12.7 37.9-8.5 40.8zm-239.2-82.7l96.2 71.4-37 31.3-52.3 15.3-11.5-13.5 5-3.6-8-7.3 6.1-4.8-8-6.1 5.4-4-8.5-40.8z"/><path class="h" d="m310.8 240.7h-46.5l-31.2 0.4 23.7-46-15.9-23.9 52.3 15.3zm-197-45.6l23.6 46-31.1-0.4h-46.4l17.4-54.2 52.3-15.3zm85.5 20.7l-0.2 44.8h-27.7l-0.1-44.8-1.2-18.2-3.5-57.7-15-41.1h67.5l-15.2 41.1-3.3 57.7z"/></svg>